<svg xmlns="http://www.w3.org/2000/svg" xmlns:xlink="http://www.w3.org/1999/xlink" width="389" zoomAndPan="magnify" viewBox="0 0 291.75 143.999998" height="192" preserveAspectRatio="xMidYMid meet" version="1.0"><defs><g/><clipPath id="a7fd6ddf51"><path d="M 0 0.0625 L 291.5 0.0625 L 291.5 143.9375 L 0 143.9375 Z M 0 0.0625 " clip-rule="nonzero"/></clipPath><clipPath id="a64c1161c8"><path d="M 111 17 L 180 17 L 180 77 L 111 77 Z M 111 17 " clip-rule="nonzero"/></clipPath><clipPath id="4cbd7fb3d8"><path d="M 110.636719 43.847656 L 162.300781 15.894531 L 180.601562 49.722656 L 128.9375 77.671875 Z M 110.636719 43.847656 " clip-rule="nonzero"/></clipPath><clipPath id="ddc5484f05"><path d="M 113.933594 42.0625 L 158.890625 17.742188 C 160.710938 16.757812 162.984375 17.433594 163.96875 19.253906 L 178.703125 46.488281 C 179.6875 48.308594 179.007812 50.582031 177.1875 51.566406 L 132.234375 75.886719 C 130.414062 76.871094 128.140625 76.195312 127.15625 74.375 L 112.421875 47.140625 C 111.4375 45.320312 112.113281 43.046875 113.933594 42.0625 Z M 113.933594 42.0625 " clip-rule="nonzero"/></clipPath></defs><g clip-path="url(#a7fd6ddf51)"><path fill="#ffffff" d="M 0 0.0625 L 291.5 0.0625 L 291.5 143.9375 L 0 143.9375 Z M 0 0.0625 " fill-opacity="1" fill-rule="nonzero"/></g><g clip-path="url(#a64c1161c8)"><g clip-path="url(#4cbd7fb3d8)"><g clip-path="url(#ddc5484f05)"><path fill="#4c0ecd" d="M 110.636719 43.847656 L 162.167969 15.96875 L 180.46875 49.792969 L 128.9375 77.671875 Z M 110.636719 43.847656 " fill-opacity="1" fill-rule="nonzero"/></g></g></g><g fill="#4c0ecd" fill-opacity="1"><g transform="translate(59.879684, 109.358092)"><g><path d="M 35.671875 -29.21875 L 35.671875 0 L 28.5625 0 L 28.5625 -17.53125 L 22.015625 0 L 16.28125 0 L 9.703125 -17.5625 L 9.703125 0 L 2.578125 0 L 2.578125 -29.21875 L 10.984375 -29.21875 L 19.1875 -8.984375 L 27.3125 -29.21875 Z M 35.671875 -29.21875 "/></g></g></g><g fill="#4c0ecd" fill-opacity="1"><g transform="translate(98.089244, 109.358092)"><g><path d="M 24.46875 -11.984375 C 24.46875 -11.316406 24.425781 -10.625 24.34375 -9.90625 L 8.234375 -9.90625 C 8.347656 -8.46875 8.8125 -7.363281 9.625 -6.59375 C 10.445312 -5.832031 11.457031 -5.453125 12.65625 -5.453125 C 14.425781 -5.453125 15.660156 -6.203125 16.359375 -7.703125 L 23.9375 -7.703125 C 23.550781 -6.171875 22.847656 -4.796875 21.828125 -3.578125 C 20.816406 -2.359375 19.546875 -1.398438 18.015625 -0.703125 C 16.492188 -0.015625 14.789062 0.328125 12.90625 0.328125 C 10.625 0.328125 8.59375 -0.15625 6.8125 -1.125 C 5.039062 -2.09375 3.65625 -3.476562 2.65625 -5.28125 C 1.664062 -7.082031 1.171875 -9.191406 1.171875 -11.609375 C 1.171875 -14.023438 1.660156 -16.132812 2.640625 -17.9375 C 3.628906 -19.738281 5.007812 -21.125 6.78125 -22.09375 C 8.5625 -23.070312 10.601562 -23.5625 12.90625 -23.5625 C 15.15625 -23.5625 17.148438 -23.085938 18.890625 -22.140625 C 20.640625 -21.203125 22.003906 -19.859375 22.984375 -18.109375 C 23.972656 -16.359375 24.46875 -14.316406 24.46875 -11.984375 Z M 17.1875 -13.859375 C 17.1875 -15.078125 16.769531 -16.046875 15.9375 -16.765625 C 15.101562 -17.492188 14.066406 -17.859375 12.828125 -17.859375 C 11.628906 -17.859375 10.617188 -17.507812 9.796875 -16.8125 C 8.984375 -16.125 8.476562 -15.140625 8.28125 -13.859375 Z M 17.1875 -13.859375 "/></g></g></g><g fill="#4c0ecd" fill-opacity="1"><g transform="translate(123.728773, 109.358092)"><g><path d="M 25.515625 -23.234375 L 25.515625 0 L 18.390625 0 L 18.390625 -3.15625 C 17.671875 -2.132812 16.691406 -1.3125 15.453125 -0.6875 C 14.222656 -0.0625 12.859375 0.25 11.359375 0.25 C 9.585938 0.25 8.019531 -0.144531 6.65625 -0.9375 C 5.300781 -1.726562 4.25 -2.875 3.5 -4.375 C 2.75 -5.875 2.375 -7.632812 2.375 -9.65625 L 2.375 -23.234375 L 9.453125 -23.234375 L 9.453125 -10.609375 C 9.453125 -9.054688 9.851562 -7.847656 10.65625 -6.984375 C 11.457031 -6.128906 12.539062 -5.703125 13.90625 -5.703125 C 15.289062 -5.703125 16.382812 -6.128906 17.1875 -6.984375 C 17.988281 -7.847656 18.390625 -9.054688 18.390625 -10.609375 L 18.390625 -23.234375 Z M 25.515625 -23.234375 "/></g></g></g><g fill="#4c0ecd" fill-opacity="1"><g transform="translate(151.782428, 109.358092)"><g/></g></g><g fill="#4c0ecd" fill-opacity="1"><g transform="translate(160.60642, 109.358092)"><g><path d="M 13.53125 -29.21875 C 16.613281 -29.21875 19.304688 -28.609375 21.609375 -27.390625 C 23.910156 -26.171875 25.691406 -24.457031 26.953125 -22.25 C 28.210938 -20.039062 28.84375 -17.492188 28.84375 -14.609375 C 28.84375 -11.753906 28.210938 -9.210938 26.953125 -6.984375 C 25.691406 -4.765625 23.898438 -3.046875 21.578125 -1.828125 C 19.265625 -0.609375 16.582031 0 13.53125 0 L 2.578125 0 L 2.578125 -29.21875 Z M 13.0625 -6.15625 C 15.757812 -6.15625 17.859375 -6.890625 19.359375 -8.359375 C 20.859375 -9.835938 21.609375 -11.921875 21.609375 -14.609375 C 21.609375 -17.296875 20.859375 -19.390625 19.359375 -20.890625 C 17.859375 -22.390625 15.757812 -23.140625 13.0625 -23.140625 L 9.703125 -23.140625 L 9.703125 -6.15625 Z M 13.0625 -6.15625 "/></g></g></g><g fill="#4c0ecd" fill-opacity="1"><g transform="translate(190.866079, 109.358092)"><g><path d="M 6.15625 -25.640625 C 4.90625 -25.640625 3.882812 -26.003906 3.09375 -26.734375 C 2.3125 -27.472656 1.921875 -28.382812 1.921875 -29.46875 C 1.921875 -30.582031 2.3125 -31.503906 3.09375 -32.234375 C 3.882812 -32.972656 4.90625 -33.34375 6.15625 -33.34375 C 7.375 -33.34375 8.378906 -32.972656 9.171875 -32.234375 C 9.960938 -31.503906 10.359375 -30.582031 10.359375 -29.46875 C 10.359375 -28.382812 9.960938 -27.472656 9.171875 -26.734375 C 8.378906 -26.003906 7.375 -25.640625 6.15625 -25.640625 Z M 9.703125 -23.234375 L 9.703125 0 L 2.578125 0 L 2.578125 -23.234375 Z M 9.703125 -23.234375 "/></g></g></g><g fill="#4c0ecd" fill-opacity="1"><g transform="translate(203.144747, 109.358092)"><g><path d="M 16.734375 -23.46875 C 19.453125 -23.46875 21.625 -22.585938 23.25 -20.828125 C 24.875 -19.066406 25.6875 -16.644531 25.6875 -13.5625 L 25.6875 0 L 18.609375 0 L 18.609375 -12.609375 C 18.609375 -14.160156 18.203125 -15.367188 17.390625 -16.234375 C 16.585938 -17.097656 15.507812 -17.53125 14.15625 -17.53125 C 12.789062 -17.53125 11.707031 -17.097656 10.90625 -16.234375 C 10.101562 -15.367188 9.703125 -14.160156 9.703125 -12.609375 L 9.703125 0 L 2.578125 0 L 2.578125 -23.234375 L 9.703125 -23.234375 L 9.703125 -20.140625 C 10.421875 -21.171875 11.390625 -21.984375 12.609375 -22.578125 C 13.828125 -23.171875 15.203125 -23.46875 16.734375 -23.46875 Z M 16.734375 -23.46875 "/></g></g></g><g fill="#ffffff" fill-opacity="1"><g transform="translate(131.911555, 60.651544)"><g><path d="M 24.59375 -8.453125 C 24.59375 -6.929688 24.195312 -5.53125 23.40625 -4.25 C 22.625 -2.96875 21.460938 -1.914062 19.921875 -1.09375 C 18.390625 -0.28125 16.570312 0.164062 14.46875 0.25 L 14.46875 3.609375 L 11.8125 3.609375 L 11.8125 0.203125 C 8.882812 -0.046875 6.519531 -0.921875 4.71875 -2.421875 C 2.925781 -3.929688 1.972656 -5.984375 1.859375 -8.578125 L 9.40625 -8.578125 C 9.570312 -6.921875 10.375 -5.859375 11.8125 -5.390625 L 11.8125 -11.9375 C 9.65625 -12.488281 7.9375 -13.023438 6.65625 -13.546875 C 5.375 -14.078125 4.25 -14.921875 3.28125 -16.078125 C 2.3125 -17.242188 1.828125 -18.835938 1.828125 -20.859375 C 1.828125 -23.367188 2.757812 -25.382812 4.625 -26.90625 C 6.488281 -28.425781 8.882812 -29.285156 11.8125 -29.484375 L 11.8125 -32.84375 L 14.46875 -32.84375 L 14.46875 -29.484375 C 17.375 -29.265625 19.671875 -28.421875 21.359375 -26.953125 C 23.046875 -25.484375 23.984375 -23.453125 24.171875 -20.859375 L 16.59375 -20.859375 C 16.425781 -22.347656 15.71875 -23.316406 14.46875 -23.765625 L 14.46875 -17.328125 C 16.769531 -16.691406 18.539062 -16.125 19.78125 -15.625 C 21.019531 -15.132812 22.128906 -14.316406 23.109375 -13.171875 C 24.097656 -12.023438 24.59375 -10.453125 24.59375 -8.453125 Z M 9.328125 -21.1875 C 9.328125 -20.5 9.539062 -19.921875 9.96875 -19.453125 C 10.394531 -18.984375 11.007812 -18.566406 11.8125 -18.203125 L 11.8125 -23.96875 C 11.039062 -23.832031 10.429688 -23.535156 9.984375 -23.078125 C 9.546875 -22.617188 9.328125 -21.988281 9.328125 -21.1875 Z M 14.46875 -5.265625 C 15.300781 -5.398438 15.957031 -5.726562 16.4375 -6.25 C 16.925781 -6.78125 17.171875 -7.429688 17.171875 -8.203125 C 17.171875 -8.921875 16.941406 -9.507812 16.484375 -9.96875 C 16.023438 -10.425781 15.351562 -10.820312 14.46875 -11.15625 Z M 14.46875 -5.265625 "/></g></g></g></svg>